# xmcd CD database file
#
# Track frame offsets:
#	150
#	33480
#	65091
#	90361
#	107099
#	122833
#	153540
#	173728
#	190628
#	205172
#	231153
#	259784
#	289465
#	312547
#	331507
#
# Disc length: 4638 seconds
#
# Revision: 0
# Processed by: cddbd v1.5.2PL0 Copyright (c) Steve Scherf et al.
# Submitted via: CDex 1.70beta2
#
DISCID=d3121c0f
DTITLE=Various Artist - Urban Sound Cruise Brazilian Breeze
DYEAR=2011
DGENRE=Jazz
TTITLE0=George Duke - Brazilian Love Affair
TTITLE1=Torbjörn Langborn And The Feel Life Orchestra - En Estocolmo No Pasa Nada
TTITLE2=Roman Andren - Let's Live Forever, Love
TTITLE3=Toninho Horta - Vôo Dos Urubus
TTITLE4=Jorge Daito - Stella By Starlight
TTITLE5=Ryo Kawasaki - Trinkets and Things
TTITLE6=SPiCK and SPAN - Noite Inteira feat. Hugo Fattoruso(Piano)
TTITLE7=Viva Brasil - Skindo Le-Le
TTITLE8=Cravo and Canela - Preco de cada um
TTITLE9=Isabelle Antena - Brasilian Dorian Dream
TTITLE10=Airto - Tombo In 7/4
TTITLE11=Deodato - Skyscrapers
TTITLE12=Reverie - In Every Way
TTITLE13=Joyce Cooling - It's You
TTITLE14=Azymuth - Vôo Sobre O Horizonte
EXTD=YEAR: 2011
EXTT0=
EXTT1=
EXTT2=
EXTT3=
EXTT4=
EXTT5=
EXTT6=
EXTT7=
EXTT8=
EXTT9=
EXTT10=
EXTT11=
EXTT12=
EXTT13=
EXTT14=
PLAYORDER=
